<?xml version="1.0" encoding="UTF-8" standalone="no"?>
<!-- Created with Inkscape (http://www.inkscape.org/) -->
<svg
   xmlns:svg="http://www.w3.org/2000/svg"
   xmlns="http://www.w3.org/2000/svg"
   version="1.0"
   width="819.67322"
   height="221.45668"
   id="svg1882">
  <defs
     id="defs1884" />
  <g
     transform="translate(-421.8795,-104.786)"
     id="layer1">
    <g
       transform="translate(453.4262,-442.0292)"
       id="g2025">
      <g
         transform="translate(10.47884,4.634008)"
         style="fill:red"
         id="g18131">
        <path
           d="M 192.8218,608.79381 C 174.42578,602.88893 152.50954,617.53763 143.87932,641.27076 C 139.10998,654.6703 139.33709,668.52412 144.67421,679.3119 C 148.42154,686.92015 154.32643,692.14365 161.59399,694.4148 C 179.99,700.31968 201.90624,685.67098 210.42291,661.93785 C 215.30581,648.53832 214.96514,634.6845 209.62803,623.89671 C 205.99424,616.28856 200.08935,611.06496 192.8218,608.79381 z M 187.71179,656.03297 C 183.73735,668.18342 175.67489,676.47296 169.65645,674.54259 C 163.52444,672.61213 161.82111,661.14297 165.79556,648.87901 C 169.77,636.72855 177.83245,628.43901 183.96445,630.36938 C 189.9829,632.41344 191.68624,643.88251 187.71179,656.03297"
           style="fill:red;fill-rule:nonzero;stroke:none"
           id="path17968" />
        <path
           d="M 185.44067,582.56253 C 150.23843,582.33534 117.76152,610.04298 112.19729,652.85343 C 106.40596,696.68586 131.84242,723.03083 167.15822,723.14433 C 202.58758,723.37152 234.72382,697.25365 240.40161,653.53472 C 245.96582,610.72427 220.75648,582.67603 185.44067,582.56253 z M 218.37181,664.77679 C 208.26536,692.71143 181.69334,709.63129 159.09577,702.36364 C 149.67065,699.4112 141.94887,692.59793 137.17953,683.05923 C 130.82042,670.22748 130.47975,653.989 136.04398,638.43182 C 146.15043,610.49718 172.72245,593.57741 195.32002,600.84497 C 204.74514,603.79741 212.46691,610.61077 217.23626,620.14938 C 223.48181,632.98122 223.93603,649.21961 218.37181,664.77679"
           style="fill:red;fill-rule:nonzero;stroke:none"
           id="path17970" />
        <path
           d="M 667.59789,585.06069 L 618.4283,718.60212 L 695.87324,718.60212 L 709.15925,682.03724 L 671.57233,682.03724 L 678.49923,662.05144 L 716.42681,662.05144 L 723.35371,642.51984 L 685.76679,642.51984 L 693.1479,621.96634 L 730.84838,621.96634 L 744.47505,585.06069 L 667.59789,585.06069"
           style="fill:red;fill-rule:nonzero;stroke:none"
           id="path17972" />
        <path
           d="M 657.15077,585.06069 L 643.86476,621.17137 L 611.2743,621.17137 L 575.73139,718.60212 L 533.60225,718.60212 L 569.14516,621.17137 L 536.32757,621.17137 L 549.72715,585.06069 L 657.15077,585.06069"
           style="fill:red;fill-rule:nonzero;stroke:none"
           id="path17974" />
        <path
           d="M 494.08489,585.17428 L 537.91736,585.17428 L 488.86132,718.60212 L 445.59663,718.60212 L 494.08489,585.17428"
           style="fill:red;fill-rule:nonzero;stroke:none"
           id="path17976" />
        <path
           d="M 482.16155,585.06069 L 468.76197,621.17137 L 436.28506,621.17137 L 400.74215,718.60212 L 358.61301,718.60212 L 394.04238,621.17137 L 361.22479,621.17137 L 374.73791,585.06069 L 482.16155,585.06069"
           style="fill:red;fill-rule:nonzero;stroke:none"
           id="path17978" />
        <path
           d="M 64.844596,674.54259 L 97.094396,585.17428 L 39.408135,585.17428 L -8.8530083,718.60212 L 89.031946,718.60212 L 104.81618,674.54259 L 64.844596,674.54259 z M 76.654382,700.20609 L 21.466345,700.20609 L 55.078812,608.33962 L 64.163263,608.33962 L 33.616797,691.91655 L 79.493273,691.91655 L 76.654382,700.20609"
           style="fill:red;fill-rule:nonzero;stroke:none"
           id="path17986" />
        <path
           d="M 320.79899,582.56253 C 285.48319,582.44894 253.00627,610.15648 247.44205,652.96702 C 241.76427,696.68586 267.08717,723.03083 302.40298,723.25792 C 308.64854,723.25792 314.78054,722.46304 320.68543,720.87327 L 337.83234,674.429 C 336.69678,674.88319 336.01545,675.11029 334.76633,675.45098 C 327.83944,677.72213 321.36677,677.49503 317.50588,677.38144 C 306.03675,677.04075 297.7472,668.86481 299.67764,655.01099 C 301.60809,641.38435 312.16876,632.52694 323.63788,632.52694 C 325.22766,632.52694 331.35967,632.75413 334.87989,634.4574 C 340.78478,637.40984 343.283,640.58938 343.51012,640.81657 L 359.40791,597.66543 C 349.52857,588.01313 336.129,582.67603 320.79899,582.56253 z M 328.06655,613.10893 C 320.91255,611.17856 313.30432,612.31404 305.80965,616.40206 C 294.56764,622.64763 285.7103,634.57099 281.6223,649.1061 C 280.14607,653.989 279.46474,658.87191 279.23763,663.75481 C 279.23763,679.99319 285.82386,690.89457 297.97431,694.4148 C 299.90476,694.98259 301.8352,695.32328 303.8792,695.32328 L 301.26742,703.49922 C 299.33698,703.27212 297.40653,703.04503 295.58964,702.47724 C 280.14607,697.93503 271.40229,684.3083 270.94807,665.23098 L 270.83451,665.23098 C 270.83451,664.6632 270.83451,664.09541 270.94807,663.64121 C 270.94807,663.41412 270.83451,663.30052 270.83451,663.07343 L 270.94807,663.07343 C 271.17518,657.62274 271.97007,652.17214 273.55984,646.83495 C 278.32919,630.14228 288.54919,616.40206 301.72164,609.1345 C 311.26032,603.91091 321.25321,602.43474 330.67833,605.04649 L 328.06655,613.10893"
           style="fill:red;fill-rule:nonzero;stroke:none"
           id="path17988" />
      </g>
    </g>
  </g>
</svg>
